<?xml version="1.0" encoding="UTF-8" standalone="no"?>
<!-- Created with Inkscape (http://www.inkscape.org/) -->

<svg
   width="328.32498mm"
   height="386.65067mm"
   viewBox="0 0 328.32498 386.65067"
   version="1.1"
   id="svg5"
   xml:space="preserve"
   sodipodi:docname="g20402.svg"
   inkscape:version="1.2 (1:1.2+202206011327+fc4e4096c5)"
   xmlns:inkscape="http://www.inkscape.org/namespaces/inkscape"
   xmlns:sodipodi="http://sodipodi.sourceforge.net/DTD/sodipodi-0.dtd"
   xmlns="http://www.w3.org/2000/svg"
   xmlns:svg="http://www.w3.org/2000/svg"><sodipodi:namedview
     id="namedview48"
     pagecolor="#ffffff"
     bordercolor="#666666"
     borderopacity="1.0"
     inkscape:showpageshadow="2"
     inkscape:pageopacity="0.0"
     inkscape:pagecheckerboard="0"
     inkscape:deskcolor="#d1d1d1"
     inkscape:document-units="mm"
     showgrid="false"
     inkscape:zoom="0.3000636"
     inkscape:cx="1128.0942"
     inkscape:cy="873.14822"
     inkscape:window-width="1920"
     inkscape:window-height="1043"
     inkscape:window-x="1920"
     inkscape:window-y="0"
     inkscape:window-maximized="1"
     inkscape:current-layer="svg5" /><defs
     id="defs2" /><g
     id="g1544"><ellipse
       style="fill:#ffffff;fill-opacity:1;stroke:none;stroke-width:2.69605;stroke-linecap:round;stroke-linejoin:round;stroke-dasharray:none;stroke-opacity:1;paint-order:markers stroke fill"
       id="path17338"
       cx="164.16249"
       cy="193.32533"
       rx="164.16251"
       ry="193.32533" /><g
       id="path597-3"
       transform="translate(670.30652,132.47947)"><path
         style="color:#000000;fill:#423859;stroke-width:3.95"
         d="m -427.4986,126.69415 c 0,0 20.62994,-6.44256 27.60217,-0.43735 6.06186,5.22112 8.25416,17.60355 3.18067,23.7895 -7.36112,8.97518 -26.57381,10.06571 -34.75184,2.22898"
         id="path8070" /><path
         style="color:#000000;fill:#000000"
         d="m -406.94922,121.73438 c -3.15899,-0.25143 -6.53538,0.09 -9.64258,0.5332 -6.2144,0.88643 -11.49609,2.54101 -11.49609,2.54101 l 1.17773,3.77149 c 0,0 5.03334,-1.56685 10.87696,-2.40039 5.84361,-0.83355 12.35598,-0.57188 14.84765,1.57422 2.53517,2.18355 4.48896,6.202 5.10157,10.32617 0.6126,4.12416 -0.11968,8.22738 -2.15821,10.71289 -3.17114,3.86647 -9.32759,6.3114 -15.66406,6.70117 -6.33647,0.38977 -12.69718,-1.29239 -16.19531,-4.64453 l -2.73242,2.85156 c 4.67988,4.48458 12.01527,6.17643 19.16992,5.73633 7.15465,-0.4401 14.28463,-3.02997 18.47461,-8.13867 3.03496,-3.70043 3.74235,-8.88002 3.01172,-13.79883 -0.73064,-4.91881 -2.903,-9.70267 -6.42969,-12.74023 -2.24027,-1.92956 -5.18281,-2.77397 -8.3418,-3.02539 z"
         id="path8072" /></g><g
       id="path6834"
       transform="translate(670.30652,132.47947)"><path
         style="color:#000000;fill:#423859;stroke-width:3.95"
         d="m -458.43235,149.69553 c 0,0 -31.43351,15.51371 -64.56369,21.49891 -24.85627,4.49046 -48.30397,5.05217 -55.93775,-1.69612 -9.05294,-8.00283 -8.41506,-14.42246 -4.65154,-20.2279 13.94229,-21.50675 75.44278,-14.85719 75.44278,-14.85719"
         id="path8076" /><path
         style="color:#000000;fill:#000000"
         d="m -528.32031,131.46875 c -3.88887,-0.0118 -8.1047,0.0765 -12.4336,0.33594 -8.65778,0.5189 -17.7828,1.7103 -25.74804,4.18554 -7.96524,2.47525 -14.86888,6.2333 -18.74024,12.20508 -2.0348,3.13881 -3.36889,6.73272 -2.77734,10.66016 0.59155,3.92744 3.03729,7.93283 7.77734,12.12305 4.58905,4.05673 12.67742,5.41211 22.79102,5.55664 10.1136,0.14452 22.28578,-1.13451 34.80664,-3.39649 33.50263,-6.05248 65.08594,-21.67187 65.08594,-21.67187 l -1.74805,-3.54297 c 0,0 -31.28335,15.40827 -64.04102,21.32617 -12.33538,2.22847 -24.31413,3.47502 -34.04687,3.33594 -9.73275,-0.13908 -17.18574,-1.87486 -20.23047,-4.56641 -4.31288,-3.8126 -6.07642,-7.01947 -6.48828,-9.75391 -0.41186,-2.73443 0.45684,-5.25329 2.18555,-7.91992 3.09978,-4.78158 9.1103,-8.25725 16.59765,-10.58398 7.48736,-2.32674 16.3524,-3.50662 24.8125,-4.01367 16.92021,-1.01411 32.16211,0.6289 32.16211,0.6289 l 0.42578,-3.92773 c 0,0 -8.72402,-0.94519 -20.39062,-0.98047 z"
         id="path8078" /></g><g
       id="path7179-5-6"
       transform="translate(679.50018,130.2472)"><path
         style="color:#000000;fill:#423859;stroke-width:3.01538"
         d="m -482.13445,67.556486 c 0,0 -24.50217,11.598325 -50.32689,16.072965 -19.37526,3.35714 -37.65255,3.77708 -43.60302,-1.26805 -7.05669,-5.983058 -6.55948,-10.782486 -3.62585,-15.122735 10.86792,-16.078823 58.80705,-11.107495 58.80705,-11.107495"
         id="path8082" /><path
         style="color:#000000;fill:#000000"
         d="m -536.61133,53.898437 c -3.02944,-0.0088 -6.31353,0.05812 -9.68554,0.251954 -6.74403,0.387671 -13.85138,1.277279 -20.05079,3.125 -6.1994,1.84772 -11.56665,4.643517 -14.59179,9.11914 -1.58907,2.350996 -2.63926,5.059769 -2.17383,8.023438 0.46542,2.963669 2.38088,5.962328 6.07422,9.09375 3.57175,3.028324 9.84624,4.034653 17.7207,4.142578 7.87446,0.107924 17.35946,-0.848684 27.11524,-2.539063 26.09845,-4.522069 50.71289,-16.195312 50.71289,-16.195312 l -1.28907,-2.726563 c 0,0 -24.38852,11.523971 -49.93945,15.951172 -9.61946,1.666759 -18.96299,2.598244 -26.55859,2.494141 -7.59561,-0.104103 -13.43379,-1.410934 -15.8125,-3.427735 -3.36335,-2.85163 -4.72819,-5.244851 -5.04493,-7.261718 -0.31673,-2.016867 0.3488,-3.877939 1.69336,-5.867188 2.40882,-3.56378 7.10931,-6.175647 12.95508,-7.917969 5.84578,-1.742321 12.7621,-2.624557 19.36133,-3.003906 13.19846,-0.758696 25.08594,0.470703 25.08594,0.470703 l 0.31054,-3 c 0,0 -6.79447,-0.70607 -15.88281,-0.732422 z"
         id="path8084" /></g><path
       style="fill:#ffffff;fill-opacity:1;stroke:none;stroke-width:4.58082;stroke-linecap:butt;stroke-linejoin:miter;stroke-dasharray:none;stroke-opacity:1"
       d="m 244.58005,153.74474 c 0,0 32.44942,104.90228 1.45733,139.62983 -23.60104,26.44566 -84.37825,30.27433 -105.77157,10.94599 -42.19158,-38.11912 -1.43987,-137.70004 -1.43987,-137.70004"
       id="path6021" /><g
       id="g20300"
       transform="matrix(1.3104778,-0.36152297,0.36152297,1.3104778,83.25628,93.057556)"
       class="UnoptimicedTransforms"><path
         style="fill:#fcfcff;stroke:#000000;stroke-width:3.30039;stroke-linecap:round;stroke-linejoin:round;stroke-opacity:1;paint-order:markers stroke fill"
         d="m -43.355951,8.7819465 c 10.745244,-2.440812 19.635424,-2.578973 28.504198,-1.6665388 6.8891652,0.708834 13.7681608,2.0518085 21.4925433,3.4421233 0.7219729,5.09981 1.0059163,75.038623 0.7469378,77.555803 C -2.659048,86.605297 -4.4048056,85.474932 -14.514979,85.02557 c -10.860163,-0.482802 -17.713071,1.033897 -29.563419,2.363181 -1.388737,-9.055615 -1.816241,-63.65987 0.722447,-78.6068045 z"
         id="rect19561"
         class="UnoptimicedTransforms" /><path
         style="fill:#130754;stroke-width:3.49999;stroke-linecap:round;stroke-linejoin:round;paint-order:markers stroke fill"
         d="m -36.260691,35.509715 c 0,0 6.94038,0 6.94038,0 0,13.452177 0,26.904353 0,40.356529 0,0 -6.94038,0 -6.94038,0 0,-13.452176 0,-26.904352 0,-40.356529 z"
         id="rect18296" /><path
         style="fill:#130754;stroke-width:3.49999;stroke-linecap:round;stroke-linejoin:round;paint-order:markers stroke fill"
         d="m -8.4413182,22.265257 c 2.31346,0 4.62692,0 6.94038,0 0,0 0,40.35653 0,40.35653 -0.5338754,0 -6.4065046,0 -6.94038,0 0,0 0,-40.35653 0,-40.35653 z"
         id="rect18296-9" /><path
         style="fill:#130754;stroke-width:1.93401;stroke-linecap:round;stroke-linejoin:round;paint-order:markers stroke fill"
         d="m -26.612761,25.331015 c 2.313461,0 4.626921,0 6.940381,0 0,4.107465 0,8.214929 0,12.322393 -2.31346,0 -4.62692,0 -6.940381,0 0,-4.107464 0,-8.214928 0,-12.322393 z"
         id="rect18296-2" /><path
         style="fill:#130754;stroke-width:1.93401;stroke-linecap:round;stroke-linejoin:round;paint-order:markers stroke fill"
         d="m -26.909288,50.400725 c 2.31346,0 4.62692,0 6.94038,0 0,0 0,12.322392 0,12.322392 -2.31346,0 -4.62692,0 -6.94038,0 0,0 0,-12.322392 0,-12.322392 z"
         id="rect18296-2-0" /><path
         style="fill:#130754;stroke-width:1.93401;stroke-linecap:round;stroke-linejoin:round;paint-order:markers stroke fill"
         d="m -17.106033,35.646513 c 2.31346,0 4.62692,0 6.94038,0 0,4.107465 0,8.214929 0,12.322393 -2.31346,0 -4.62692,0 -6.94038,0 0,-4.107464 0,-8.214928 0,-12.322393 z"
         id="rect18296-2-7" /><path
         style="fill:#130754;stroke-width:1.93401;stroke-linecap:round;stroke-linejoin:round;paint-order:markers stroke fill"
         d="m -17.402561,60.716223 c 2.31346,0 4.62692,0 6.94038,0 0,4.107465 0,8.214929 0,12.322393 -2.31346,0 -4.62692,0 -6.94038,0 0,-4.107464 0,-8.214928 0,-12.322393 z"
         id="rect18296-2-0-5" /><path
         style="fill:#ffca00;stroke-width:1.38695;stroke-linecap:round;stroke-linejoin:round;paint-order:markers stroke fill"
         d="m -26.451111,40.290076 c 2.146667,0 4.293334,0 6.44,0 0,2.2766 0,4.5532 0,6.829799 -2.146666,0 -4.293333,0 -6.44,0 0,-6.829799 0,0 0,-6.829799 z"
         id="rect18296-2-0-2" /><path
         style="fill:#e70488;stroke-width:1.38695;stroke-linecap:round;stroke-linejoin:round;paint-order:markers stroke fill"
         d="m -17.475765,50.40063 c 2.146667,0 4.293334,0 6.44,0 0,0 0,6.829799 0,6.829799 -2.146666,0 -4.293333,0 -6.44,0 0,0 0,-6.829799 0,-6.829799 z"
         id="rect18296-2-0-2-3" /></g><path
       style="fill:#423859;fill-opacity:1;stroke:none;stroke-width:0.264583px;stroke-linecap:butt;stroke-linejoin:miter;stroke-opacity:1"
       d="m 134.07041,177.63043 -10.96643,53.26994 c 28.09465,1.44895 59.14259,1.14529 133.63114,-21.18707 l -9.63528,-44.15405 c -38.99402,29.57789 -89.10146,20.75248 -113.02943,12.07118 z"
       id="path465"
       sodipodi:nodetypes="ccccc" /><path
       style="color:#000000;fill:#000000"
       d="M 246.45496,152.01853 242.078,153.374 c 0,0 8.06133,26.0805 12.26954,56.42969 2.1041,15.17459 3.23356,31.39948 1.9414,45.84961 -1.29216,14.45013 -5.03905,27.04209 -12.27344,35.14844 -11.18673,12.53506 -31.80338,20.07066 -52.20898,21.88085 -20.4056,1.8102 -40.4781,-2.21894 -50.31836,-11.10937 -20.08743,-18.14853 -20.68268,-51.7119 -15.81836,-81.07226 4.86432,-29.36037 14.96289,-54.06055 14.96289,-54.06055 l -4.24023,-1.73633 c 0,0 -10.27856,25.08901 -15.24219,55.04883 -4.96363,29.95981 -4.83848,65.2482 17.26563,85.21875 11.55304,10.43789 32.56531,14.1569 53.79687,12.27343 21.23156,-1.88346 42.80447,-9.48396 55.21875,-23.39453 8.26164,-9.25741 12.07983,-22.80292 13.41992,-37.78906 1.3401,-14.98614 0.16744,-31.49678 -1.96679,-46.88867 -4.26847,-30.78378 -12.42969,-57.1543 -12.42969,-57.1543 z"
       id="path6021-9" /><g
       id="path7179"
       transform="translate(670.30652,132.47947)"><path
         style="color:#000000;fill:#423859;stroke-width:3.95"
         d="m -443.129,173.94811 c 0,0 -31.43351,15.51371 -64.56369,21.49891 -24.85627,4.49046 -48.30397,5.05217 -55.93775,-1.69612 -9.05294,-8.00283 -8.41506,-14.42246 -4.65154,-20.2279 13.94229,-21.50675 75.44278,-14.85719 75.44278,-14.85719"
         id="path8124" /><path
         style="color:#000000;fill:#000000"
         d="m -513.01758,155.7207 c -3.88887,-0.0118 -8.1047,0.0784 -12.43359,0.33789 -8.65779,0.5189 -17.78085,1.70836 -25.7461,4.1836 -7.96524,2.47524 -14.87083,6.23525 -18.74218,12.20703 -2.03481,3.1388 -3.36695,6.73076 -2.77539,10.6582 0.59155,3.92744 3.03534,7.93283 7.77539,12.12305 4.58904,4.05673 12.67741,5.41407 22.79101,5.55859 10.1136,0.14452 22.28578,-1.13645 34.80664,-3.39844 33.50263,-6.05248 65.08594,-21.67187 65.08594,-21.67187 l -1.74805,-3.54102 c 0,0 -31.28139,15.40827 -64.03906,21.32618 -12.33538,2.22847 -24.31608,3.47306 -34.04883,3.33398 -9.73274,-0.13908 -17.18574,-1.87486 -20.23047,-4.56641 -4.31288,-3.8126 -6.07446,-7.01751 -6.48632,-9.75195 -0.41187,-2.73444 0.45488,-5.25524 2.18359,-7.92187 3.09978,-4.78159 9.11226,-8.25725 16.59961,-10.58399 7.48735,-2.32673 16.35044,-3.50662 24.81055,-4.01367 16.92021,-1.0141 32.16406,0.62891 32.16406,0.62891 l 0.42383,-3.92579 c 0,0 -8.72403,-0.94714 -20.39063,-0.98242 z"
         id="path8126" /></g><g
       id="g3091"
       transform="translate(79.84441,33.849861)"><g
         id="path597-7"><path
           style="color:#000000;fill:#423859;stroke-width:3.95"
           d="m 66.573448,34.607007 c 0,0 -12.409849,-10.406735 -19.500434,-9.21717 -11.622994,1.949953 -24.975996,12.932176 -25.284512,24.713565 -0.201155,7.68157 6.261767,15.76268 15.619793,16.954201"
           id="path8096" /><path
           style="color:#000000;fill:#000000"
           d="m 46.746094,23.441406 c -6.286452,1.054658 -12.794828,4.45293 -17.898438,9.167969 -5.10361,4.715039 -8.859846,10.821385 -9.033203,17.441406 -0.231083,8.824441 6.98885,17.648348 17.34375,18.966797 l 0.5,-3.919922 C 29.29707,64.033066 23.592445,56.69298 23.763672,50.154297 c 0.135159,-5.161356 3.207913,-10.435632 7.763672,-14.644531 4.555759,-4.2089 10.536516,-7.276583 15.873047,-8.171875 2.433049,-0.408185 7.199633,1.530541 11.046875,3.896484 3.847241,2.365943 6.857422,4.886719 6.857421,4.886719 l 2.53711,-3.027344 c 0,0 -3.193897,-2.684581 -7.324219,-5.224609 -4.130321,-2.540029 -9.113955,-5.209114 -13.771484,-4.427735 z"
           id="path8098" /></g><path
         style="fill:#ffffff;stroke-width:3.965;stroke-linecap:round;stroke-linejoin:round"
         d="m 37.059933,57.244726 c -1.605644,2.516469 -3.132808,11.585795 -6.761021,21.248199 -2.859966,7.616463 -7.844933,15.37393 -9.573697,22.143605 C 6.7036196,155.54377 123.2321,166.49629 161.39829,136.71776 184.20053,118.9267 167.87423,57.98178 160.92771,49.953968 143.08713,29.336308 119.07157,27.089975 98.300134,26.985239 49.416223,26.738752 38.88776,54.380038 37.059933,57.244726 Z"
         id="path385" /><path
         style="fill:#423859;stroke-width:0.264583px"
         d="m 33.575951,70.65074 c 9.775996,-5.584631 27.332136,-1.858722 32.82211,7.970743 4.916349,8.802423 -1.097194,22.960097 -9.337526,28.769577 -11.954727,8.42815 -27.61939,8.09955 -34.266248,-1.19791 -4.033907,-5.64253 0.826723,-12.701707 3.933398,-20.208889 2.438518,-5.892602 2.120859,-12.632945 6.848266,-15.333521 z"
         id="path483" /><path
         style="color:#000000;fill:#000000;stroke-linecap:round;stroke-linejoin:round"
         d="m 99.107422,24.048828 c -24.8163,-0.125131 -40.193805,6.879009 -49.521485,14.404297 -4.663839,3.762644 -7.813977,7.639868 -9.910156,10.761719 -1.048089,1.560925 -1.833086,2.933927 -2.410156,3.998047 -0.57707,1.064119 -1.008303,1.899227 -1.080078,2.011718 -1.230412,1.928382 -1.827998,4.701295 -2.863281,8.488282 -1.035284,3.786986 -2.307506,8.405065 -4.082032,13.130859 -2.749186,7.321442 -7.773683,15.046495 -9.638672,22.349609 -3.672188,14.379941 1.356975,26.334421 11.320313,34.976561 9.963338,8.64214 24.704234,14.27997 41.009766,17.26172 32.611059,5.9635 71.534919,1.46019 91.482419,-14.10352 6.22381,-4.85602 9.63047,-12.50232 11.25196,-21.13085 1.62149,-8.62854 1.48512,-18.332014 0.41992,-27.699223 -1.06521,-9.36721 -3.06551,-18.391626 -5.25196,-25.628906 C 167.64754,55.63186 165.52197,50.358096 163.22461,47.703125 144.85463,26.473661 120.01407,24.154246 99.107422,24.048828 Z m -0.01953,3.966797 c 20.636198,0.104054 43.827528,2.277388 61.138668,22.283203 1.17589,1.358931 3.69468,6.713127 5.81055,13.716797 2.11587,7.00367 4.07497,15.833327 5.10937,24.929687 1.03441,9.096361 1.13643,18.466308 -0.37695,26.519528 -1.51338,8.05323 -4.61567,14.69683 -9.79297,18.73633 -18.21865,14.2148 -56.64276,19.12501 -88.332028,13.33008 -15.844633,-2.89746 -29.990145,-8.43195 -39.125,-16.35547 -9.134854,-7.92352 -13.414774,-17.9283 -10.076172,-31.00195 1.592537,-6.23622 6.537073,-14.026033 9.507813,-21.937502 1.853683,-4.936601 3.158552,-9.684175 4.195312,-13.476562 1.036761,-3.792388 2.007583,-6.814259 2.382813,-7.402344 0.385181,-0.603681 0.681188,-1.259039 1.220703,-2.253906 0.539515,-0.994868 1.258949,-2.248297 2.21875,-3.677735 1.919603,-2.858875 4.800188,-6.411773 9.107422,-9.886719 8.614469,-6.949891 22.944158,-13.644793 47.011719,-13.523437 z"
         id="path385-5" /><path
         style="fill:#423859;stroke-width:0.264583px"
         d="m 92.664884,84.226594 c 9.295926,-14.782311 38.875356,-17.083756 52.342256,-2.160106 7.31248,8.103489 5.25063,24.851432 -2.46184,32.506412 -8.47861,8.4154 -25.42709,8.6295 -35.75477,2.43894 C 94.545513,109.672 86.330208,94.299953 92.664884,84.226594 Z"
         id="path485" /><path
         style="fill:#000000;stroke-width:0.264583px"
         d="m 68.44322,108.53484 c -0.782685,0.0673 -1.630434,0.93718 -1.6085,1.72244 0.06583,2.3568 1.856973,3.91763 5.108602,4.89201 0,0 0.800194,6.1459 1.340379,10.15118 0.08005,0.59353 1.561886,0.85872 1.696556,-0.0287 0.578827,-3.81434 -0.01931,-7.0986 0.57164,-9.70628 0,0 5.490571,-2.40899 5.721874,-4.91202 0.09714,-1.05117 -1.04149,-2.39516 -1.98424,-2.46827 -5.234563,-0.40596 -6.181207,-0.0512 -10.846311,0.34966 z"
         id="path487" /><path
         id="path541"
         style="fill:#ffffff;stroke-width:5.21941;stroke-linecap:round;stroke-linejoin:round;paint-order:markers stroke fill"
         d="M 56.070785,91.42701 A 8.0553541,8.1886873 0 0 1 48.01543,99.615697 8.0553541,8.1886873 0 0 1 39.960076,91.42701 8.0553541,8.1886873 0 0 1 48.01543,83.238322 8.0553541,8.1886873 0 0 1 56.070785,91.42701 Z" /><path
         id="path541-6"
         style="fill:#ffffff;stroke-width:4.82617;stroke-linecap:round;stroke-linejoin:round;paint-order:markers stroke fill"
         d="m 120.01746,95.58654 a 7.3658366,7.6566505 0 0 1 -7.36583,7.65665 7.3658366,7.6566505 0 0 1 -7.36584,-7.65665 7.3658366,7.6566505 0 0 1 7.36584,-7.65665 7.3658366,7.6566505 0 0 1 7.36583,7.65665 z" /><g
         id="path597"><path
           style="color:#000000;fill:#423859;stroke-width:3.95"
           d="m 142.54287,40.122131 c 0,0 9.98909,-12.667886 16.83371,-11.95273 11.603,1.212336 24.63904,14.0927 23.73173,25.723532 -0.72349,9.274428 -10.75732,19.491976 -21.87564,17.329238"
           id="path8118" /><path
           style="color:#000000;fill:#000000"
           d="m 159.58203,26.205078 c -4.71982,-0.493147 -9.0352,3.013155 -12.52539,6.216797 -3.49019,3.203642 -6.06445,6.476562 -6.06445,6.476562 l 3.10156,2.447266 c 0,0 2.41926,-3.062166 5.63477,-6.013672 3.2155,-2.951506 7.31856,-5.421227 9.44335,-5.199219 5.15853,0.538987 11.01276,3.818546 15.33204,8.353516 4.31927,4.53497 7.02698,10.22604 6.63476,15.253906 -0.31106,3.98749 -2.73793,8.483325 -6.36133,11.611328 -3.62339,3.128004 -8.29033,4.88044 -13.16797,3.931641 l -0.7539,3.876953 c 6.24067,1.213938 12.14994,-1.059673 16.5039,-4.818359 4.35397,-3.758686 7.30633,-9.007993 7.71875,-14.294922 0.5151,-6.602954 -2.84218,-13.169162 -7.71484,-18.285156 -4.87266,-5.115995 -11.33679,-8.883293 -17.78125,-9.556641 z"
           id="path8120" /></g></g><g
       id="path7179-5"
       transform="translate(664.97043,125.03351)"><path
         style="color:#000000;fill:#423859;stroke-width:3.01538"
         d="m -470.23227,83.811336 c 0,0 -24.50217,11.598321 -50.32688,16.072967 -19.37526,3.357137 -37.65256,3.777077 -43.60303,-1.268054 -7.05669,-5.983056 -6.55947,-10.782484 -3.62584,-15.122733 10.86791,-16.078823 58.80705,-11.107495 58.80705,-11.107495"
         id="path8130" /><path
         style="color:#000000;fill:#000000"
         d="m -524.70898,70.152344 c -3.02945,-0.0088 -6.31549,0.05812 -9.6875,0.251953 -6.74403,0.387672 -13.84943,1.27728 -20.04883,3.125 -6.19941,1.84772 -11.56666,4.643516 -14.5918,9.11914 -1.58907,2.350995 -2.63925,5.059769 -2.17383,8.023438 0.46542,2.963669 2.38088,5.962329 6.07422,9.09375 3.57175,3.028325 9.84624,4.034655 17.7207,4.142575 7.87447,0.10793 17.35946,-0.84868 27.11524,-2.53906 26.09844,-4.522075 50.71289,-16.195312 50.71289,-16.195312 l -1.28906,-2.724609 c 0,0 -24.38853,11.522011 -49.93946,15.949218 -9.61946,1.666753 -18.96298,2.600193 -26.55859,2.496093 -7.59561,-0.1041 -13.43379,-1.410932 -15.8125,-3.427733 -3.36334,-2.851629 -4.72819,-5.244853 -5.04492,-7.261719 -0.31673,-2.016866 0.3488,-3.877938 1.69336,-5.867187 2.40881,-3.56378 7.1093,-6.175648 12.95508,-7.917969 5.84577,-1.742321 12.76209,-2.624558 19.36132,-3.003906 13.19847,-0.758697 25.08594,0.46875 25.08594,0.46875 l 0.31055,-2.998047 c 0,0 -6.79447,-0.708023 -15.88281,-0.734375 z"
         id="path8132" /></g></g></svg>
